HIERARCHY
ROOT Hips
{
	OFFSET 0.000000 0.000000 0.000000
	CHANNELS 6 Xposition Yposition Zposition Zrotation Yrotation Xrotation 
	JOINT LHipJoint
	{
		OFFSET 0.000000 0.000000 0.000000
		CHANNELS 3 Zrotation Yrotation Xrotation
		JOINT LeftUpLeg
		{
			OFFSET 1.363060 -1.794630 0.839290
			CHANNELS 3 Zrotation Yrotation Xrotation
			JOINT LeftLeg
			{
				OFFSET 2.448110 -6.726130 0.000000
				CHANNELS 3 Zrotation Yrotation Xrotation
				JOINT LeftFoot
				{
					OFFSET 2.562200 -7.039590 0.000000
					CHANNELS 3 Zrotation Yrotation Xrotation
					JOINT LeftToeBase
					{
						OFFSET 0.157640 -0.433110 2.322550
						CHANNELS 3 Zrotation Yrotation Xrotation
						End Site
						{
							OFFSET 0.000000 0.000000 0.000000
						}
					}
				}
			}
		}
	}
	JOINT RHipJoint
	{
		OFFSET 0.000000 0.000000 0.000000
		CHANNELS 3 Zrotation Yrotation Xrotation
		JOINT RightUpLeg
		{
			OFFSET -1.305520 -1.794630 0.839290
			CHANNELS 3 Zrotation Yrotation Xrotation
			JOINT RightLeg
			{
				OFFSET -2.542530 -6.985550 0.000000
				CHANNELS 3 Zrotation Yrotation Xrotation
				JOINT RightFoot
				{
					OFFSET -2.568260 -7.056230 0.000000
					CHANNELS 3 Zrotation Yrotation Xrotation
					JOINT RightToeBase
					{
						OFFSET -0.164730 -0.452590 2.363150
						CHANNELS 3 Zrotation Yrotation Xrotation
						End Site
						{
							OFFSET 0.000000 0.000000 0.000000
						}
					}
				}
			}
		}
	}
	JOINT LowerBack
	{
		OFFSET 0.000000 0.000000 0.000000
		CHANNELS 3 Zrotation Yrotation Xrotation
		JOINT Spine
		{
			OFFSET 0.028270 2.035590 -0.193380
			CHANNELS 3 Zrotation Yrotation Xrotation
			JOINT Spine1
			{
				OFFSET 0.056720 2.048850 -0.042750
				CHANNELS 3 Zrotation Yrotation Xrotation
				JOINT Neck
				{
					OFFSET 0.000000 0.000000 0.000000
					CHANNELS 3 Zrotation Yrotation Xrotation
					JOINT Neck1
					{
						OFFSET -0.054170 1.746240 0.172020
						CHANNELS 3 Zrotation Yrotation Xrotation
						JOINT Head
						{
							OFFSET 0.104070 1.761360 -0.123970
							CHANNELS 3 Zrotation Yrotation Xrotation
							End Site
							{
								OFFSET 0.000000 0.000000 0.000000
							}
						}
					}
				}
				JOINT LeftShoulder
				{
					OFFSET 0.000000 0.000000 0.000000
					CHANNELS 3 Zrotation Yrotation Xrotation
					JOINT LeftArm
					{
						OFFSET 3.362410 1.200890 -0.311210
						CHANNELS 3 Zrotation Yrotation Xrotation
						JOINT LeftForeArm
						{
							OFFSET 4.983000 -0.000000 -0.000000
							CHANNELS 3 Zrotation Yrotation Xrotation
							JOINT LeftHand
							{
								OFFSET 3.483560 -0.000000 -0.000000
								CHANNELS 3 Zrotation Yrotation Xrotation
								JOINT LeftFingerBase
								{
									OFFSET 0.000000 0.000000 0.000000
									CHANNELS 3 Zrotation Yrotation Xrotation
									JOINT LeftHandIndex1
									{
										OFFSET 0.715260 -0.000000 -0.000000
										CHANNELS 3 Zrotation Yrotation Xrotation
										End Site
										{
											OFFSET 0.000000 0.000000 0.000000
										}
									}
								}
								JOINT LThumb
								{
									OFFSET 0.000000 0.000000 0.000000
									CHANNELS 3 Zrotation Yrotation Xrotation
									End Site
									{
										OFFSET 0.000000 0.000000 0.000000
									}
								}
							}
						}
					}
				}
				JOINT RightShoulder
				{
					OFFSET 0.000000 0.000000 0.000000
					CHANNELS 3 Zrotation Yrotation Xrotation
					JOINT RightArm
					{
						OFFSET -3.136600 1.374050 -0.404650
						CHANNELS 3 Zrotation Yrotation Xrotation
						JOINT RightForeArm
						{
							OFFSET -5.241900 -0.000000 -0.000000
							CHANNELS 3 Zrotation Yrotation Xrotation
							JOINT RightHand
							{
								OFFSET -3.444170 -0.000000 -0.000000
								CHANNELS 3 Zrotation Yrotation Xrotation
								JOINT RightFingerBase
								{
									OFFSET 0.000000 0.000000 0.000000
									CHANNELS 3 Zrotation Yrotation Xrotation
									JOINT RightHandIndex1
									{
										OFFSET -0.622530 -0.000000 -0.000000
										CHANNELS 3 Zrotation Yrotation Xrotation
										End Site
										{
											OFFSET 0.000000 0.000000 0.000000
										}
									}
								}
								JOINT RThumb
								{
									OFFSET 0.000000 0.000000 0.000000
									CHANNELS 3 Zrotation Yrotation Xrotation
									End Site
									{
										OFFSET 0.000000 0.000000 0.000000
									}
								}
							}
						}
					}
				}
			}
		}
	}
}
MOTION
Frames: 5
Frame Time: 0.033333
-1.949533 17.040344 23.521432 0.275637 6.357885 8.157922 -5.263960 6.814429 -3.688450 -15.954557 -2.235043 -4.783571 -10.944222 -11.244668 -28.771493 0.706068 10.916985 24.265446 0.000000 0.000000 0.000000 9.795271 -4.654676 -7.726320 12.928239 0.643299 -4.059386 -18.433555 -26.744261 54.550136 20.437057 -57.542276 19.803918 0.000000 0.000000 0.000000 -2.774186 0.362551 17.333635 2.513179 -0.044897 -3.626586 -1.236602 0.642116 -6.085705 -0.068983 0.432783 -0.856609 4.538879 -0.253950 6.673033 0.000000 0.000000 0.000000 9.001619 9.009829 7.351308 -70.856770 -7.670266 23.224376 -16.022149 -80.532798 0.504898 1.972397 -15.336354 0.245195 2.028171 -15.335766 0.000000 0.000000 0.000000 0.000000 0.000000 0.000000 0.000000 -10.137815 -14.402890 2.320684 76.829535 4.304677 18.993460 177.722366 80.790525 -179.658025 -3.501370 12.671336 0.166370 -3.547270 12.661892 0.000000 0.000000 0.000000 0.000000 0.000000 0.000000 0.000000 
-1.961187 17.067316 23.720385 0.616033 6.555197 8.322874 -4.934850 6.596771 -4.144659 -16.710510 -2.030527 -4.159275 -10.621815 -10.870233 -27.566561 0.549972 9.606887 21.645527 0.000000 0.000000 0.000000 9.894945 -4.808293 -7.098593 12.395349 0.637890 -4.221568 -17.763680 -26.573332 54.028715 20.854497 -58.410592 20.052079 0.000000 0.000000 0.000000 -2.803419 0.584611 17.348464 2.470994 -0.023675 -3.543351 -1.757499 0.746528 -6.383187 0.144258 0.459593 -0.532713 4.574283 -0.260828 6.816582 0.000000 0.000000 0.000000 8.854861 9.024413 7.067289 -70.567288 -7.668848 24.573790 -20.037133 -78.355231 0.581386 1.170375 -15.241487 0.284338 1.211339 -15.246226 0.000000 0.000000 0.000000 0.000000 0.000000 0.000000 0.000000 -10.688820 -14.721621 2.062460 77.794689 4.289962 18.180005 176.630867 79.477303 -179.673811 -3.650090 12.424390 0.158547 -3.696231 12.414127 0.000000 0.000000 0.000000 0.000000 0.000000 0.000000 0.000000 
-1.972136 17.096138 23.916392 0.950986 6.642064 8.473914 -4.630872 6.447887 -4.566828 -17.450333 -1.836258 -3.614602 -10.262984 -10.448934 -26.308669 0.414760 8.370092 19.052440 0.000000 0.000000 0.000000 10.056491 -4.938932 -6.449195 11.771070 0.580035 -4.392133 -17.165923 -26.386864 53.464892 21.195846 -59.130919 20.326371 0.000000 0.000000 0.000000 -2.899887 0.744157 17.299406 2.445841 -0.013810 -3.483459 -2.174029 0.802561 -6.516735 0.359415 0.463550 -0.380110 4.589991 -0.264011 6.897386 0.000000 0.000000 0.000000 8.744027 8.981376 6.911603 -70.388426 -7.752551 25.100875 -21.821253 -77.267441 0.618873 0.786327 -15.078753 0.303649 0.819101 -15.085746 0.000000 0.000000 0.000000 0.000000 0.000000 0.000000 0.000000 -11.181153 -14.866555 1.903557 78.638128 4.444283 17.381250 175.674395 78.396768 -179.689777 -3.781747 12.167792 0.150645 -3.827893 12.156826 0.000000 0.000000 0.000000 0.000000 0.000000 0.000000 0.000000 
-1.981162 17.126289 24.108723 1.280929 6.704700 8.615014 -4.366846 6.321692 -4.977375 -18.151604 -1.653537 -3.125545 -9.899520 -9.992559 -24.996427 0.303105 7.189308 16.519582 0.000000 0.000000 0.000000 10.256543 -5.078545 -5.758591 11.078077 0.503203 -4.594025 -16.544940 -26.198514 52.858879 21.520305 -59.776879 20.549379 0.000000 0.000000 0.000000 -3.006374 0.890694 17.192671 2.446172 -0.009026 -3.449101 -2.574537 0.850686 -6.604385 0.604192 0.460283 -0.300112 4.590831 -0.262096 6.923591 0.000000 0.000000 0.000000 8.568622 8.927804 6.792624 -70.197895 -7.813659 25.495067 -23.831024 -75.948666 0.654421 0.370702 -14.855745 0.322056 0.394842 -14.864819 0.000000 0.000000 0.000000 0.000000 0.000000 0.000000 0.000000 -11.625059 -14.948381 1.835555 79.397042 4.588760 16.614802 174.904576 77.531818 -179.705709 -3.885989 11.921130 0.142761 -3.932052 11.909612 0.000000 0.000000 0.000000 0.000000 0.000000 0.000000 0.000000 
-1.988293 17.157223 24.296651 1.603386 6.742191 8.746154 -4.144475 6.218376 -5.371451 -18.808129 -1.483381 -2.692866 -9.535379 -9.508063 -23.646341 0.210731 6.072429 14.071058 0.000000 0.000000 0.000000 10.492555 -5.228746 -5.029020 10.321973 0.414356 -4.827085 -15.902945 -26.012976 52.216622 21.826360 -60.350373 20.727042 0.000000 0.000000 0.000000 -3.121726 1.024806 17.024382 2.471513 -0.006268 -3.438831 -2.957433 0.893679 -6.651740 0.874938 0.450647 -0.292346 4.576198 -0.255196 6.895240 0.000000 0.000000 0.000000 8.326412 8.861639 6.715609 -69.995204 -7.859619 25.706291 -26.077720 -74.352280 0.685911 -0.072353 -14.559066 0.338486 -0.056984 -14.569923 0.000000 0.000000 0.000000 0.000000 0.000000 0.000000 0.000000 -12.013188 -14.962792 1.855625 80.065613 4.702141 15.895260 174.301761 76.869328 -179.721166 -3.969029 11.699720 0.135101 -4.015083 11.687743 0.000000 0.000000 0.000000 0.000000 0.000000 0.000000 0.000000 
